<?xml version="1.0" encoding="UTF-8" standalone="no"?>
<!-- Created with Inkscape (http://www.inkscape.org/) -->

<svg
   width="800"
   height="800"
   viewBox="0 0 211.66667 211.66667"
   version="1.1"
   id="svg1"
   inkscape:version="1.4 (e7c3feb1, 2024-10-09)"
   xml:space="preserve"
   sodipodi:docname="logo.svg"
   xmlns:inkscape="http://www.inkscape.org/namespaces/inkscape"
   xmlns:sodipodi="http://sodipodi.sourceforge.net/DTD/sodipodi-0.dtd"
   xmlns="http://www.w3.org/2000/svg"
   xmlns:svg="http://www.w3.org/2000/svg"><sodipodi:namedview
     id="namedview1"
     pagecolor="#ffffff"
     bordercolor="#a0a0a0"
     borderopacity="1"
     inkscape:showpageshadow="false"
     inkscape:pageopacity="0"
     inkscape:pagecheckerboard="false"
     inkscape:deskcolor="#e5e5e5"
     inkscape:document-units="mm"
     showborder="true"
     labelstyle="default"
     showguides="false"
     inkscape:zoom="0.50554471"
     inkscape:cx="341.21611"
     inkscape:cy="346.16127"
     inkscape:current-layer="layer1"
     showgrid="false" /><defs
     id="defs1"><inkscape:path-effect
       effect="copy_rotate"
       starting_point="153.73933,104.49124"
       origin="111.91388,104.49124"
       id="path-effect5"
       is_visible="true"
       lpeversion="1.2"
       lpesatellites=""
       method="normal"
       num_copies="3"
       starting_angle="0"
       rotation_angle="120"
       gap="-0.01"
       copies_to_360="true"
       mirror_copies="false"
       split_items="false"
       link_styles="false" /><inkscape:path-effect
       effect="copy_rotate"
       starting_point="148.72565,133.5093"
       origin="112.8396,133.5093"
       id="path-effect4"
       is_visible="true"
       lpeversion="1.2"
       lpesatellites=""
       method="normal"
       num_copies="3"
       starting_angle="0"
       rotation_angle="120"
       gap="-0.01"
       copies_to_360="true"
       mirror_copies="false"
       split_items="false"
       link_styles="false" /><inkscape:path-effect
       effect="copy_rotate"
       starting_point="124.09482,89.331213"
       origin="93.4,89.331213"
       id="path-effect3"
       is_visible="false"
       lpeversion="1.2"
       lpesatellites=""
       method="normal"
       num_copies="3"
       starting_angle="0"
       rotation_angle="120"
       gap="-0.01"
       copies_to_360="true"
       mirror_copies="false"
       split_items="false"
       link_styles="false" /><pattern
       patternUnits="userSpaceOnUse"
       width="232.02965"
       height="191.57554"
       patternTransform="translate(349.22544,241.84201)"
       preserveAspectRatio="xMidYMid"
       id="pattern2"><path
         style="opacity:0.638273;fill:#3569c0;stroke-width:0.755906"
         d="M 24.376658,191.57554 C 54.782624,170.63026 83.100772,166.26068 113.92429,179.85541 145.54204,95.124695 186.48816,88.862086 222.95025,68.601158 237.40044,60.571604 232.19206,48.293609 223.93232,42.743962 72.121963,-59.255883 -55.008645,33.588756 24.376658,191.57554 Z"
         id="path2"
         sodipodi:nodetypes="ccssc" /></pattern><pattern
       patternUnits="userSpaceOnUse"
       width="232.02965"
       height="191.57554"
       patternTransform="translate(349.22544,241.84201)"
       preserveAspectRatio="xMidYMid"
       id="pattern2-3"><path
         style="opacity:0.638273;fill:#3569c0;stroke-width:0.755906"
         d="M 24.376658,191.57554 C 54.782624,170.63026 83.100772,166.26068 113.92429,179.85541 145.54204,95.124695 186.48816,88.862086 222.95025,68.601158 237.40044,60.571604 232.19206,48.293609 223.93232,42.743962 72.121963,-59.255883 -55.008645,33.588756 24.376658,191.57554 Z"
         id="path2-9"
         sodipodi:nodetypes="ccssc" /></pattern><pattern
       patternUnits="userSpaceOnUse"
       width="232.02965"
       height="191.57554"
       patternTransform="translate(349.22544,241.84201)"
       preserveAspectRatio="xMidYMid"
       id="pattern2-3-9"><path
         style="opacity:0.638273;fill:#3569c0;stroke-width:0.755906"
         d="M 24.376658,191.57554 C 54.782624,170.63026 83.100772,166.26068 113.92429,179.85541 145.54204,95.124695 186.48816,88.862086 222.95025,68.601158 237.40044,60.571604 232.19206,48.293609 223.93232,42.743962 72.121963,-59.255883 -55.008645,33.588756 24.376658,191.57554 Z"
         id="path2-9-0"
         sodipodi:nodetypes="ccssc" /></pattern><pattern
       patternUnits="userSpaceOnUse"
       width="232.02965"
       height="191.57554"
       patternTransform="translate(349.22544,241.84201)"
       preserveAspectRatio="xMidYMid"
       id="pattern2-3-3"><path
         style="opacity:0.638273;fill:#3569c0;stroke-width:0.755906"
         d="M 24.376658,191.57554 C 54.782624,170.63026 83.100772,166.26068 113.92429,179.85541 145.54204,95.124695 186.48816,88.862086 222.95025,68.601158 237.40044,60.571604 232.19206,48.293609 223.93232,42.743962 72.121963,-59.255883 -55.008645,33.588756 24.376658,191.57554 Z"
         id="path2-9-9"
         sodipodi:nodetypes="ccssc" /></pattern></defs><g
     inkscape:label="Layer 1"
     inkscape:groupmode="layer"
     id="layer1"><g
       id="g5"
       transform="translate(0.14140309,5.4348691)"
       style="stroke:none;stroke-opacity:1;fill:#5b8def;fill-opacity:1"><circle
         style="fill:#5b8def;fill-opacity:1;stroke-width:8.3236;stroke-linejoin:round;paint-order:stroke fill markers;stroke:none;stroke-opacity:1"
         id="path3"
         cx="111.91388"
         cy="104.49124"
         r="25.25" /><path
         id="path4"
         style="fill:#5b8def;fill-opacity:1;stroke-width:0.272518;stroke:none;stroke-opacity:1"
         d="M 121.88164,8.3535343 C 89.868469,7.6644023 70.504963,37.869346 91.075493,78.807297 102.0374,71.256138 115.04737,68.872282 126.15982,73.773436 137.5586,43.226441 150.99124,44.622405 164.13649,37.317966 169.34605,34.423164 174.13778,31.209224 166.00626,24.661061 151.56255,13.0298 134.40854,8.6231953 121.88164,8.3535343 Z M 23.672305,143.92776 c 15.409779,28.06878 51.249781,29.7356 76.417825,-8.54798 -12.020453,-5.71771 -20.589917,-15.79274 -21.901619,-27.86698 -32.153863,5.40186 -37.661243,-6.92913 -50.559698,-14.66103 -5.111752,-3.06421 -10.29097,-5.607 -11.896086,4.709184 -2.851113,18.324246 1.909661,35.383366 7.939578,46.366806 z M 190.1877,161.19243 c 16.60339,-27.37966 0.12689,-59.25142 -45.61168,-61.905791 1.05854,13.268871 -3.38196,25.727761 -13.18271,32.900851 20.75508,25.14513 12.82982,36.08015 12.58303,51.11649 -0.0978,5.95902 0.28968,11.71575 10.02631,7.94772 17.29483,-6.69298 29.68806,-19.34549 36.18505,-30.05927 z"
         sodipodi:nodetypes="sccsss"
         inkscape:path-effect="#path-effect5"
         inkscape:original-d="M 121.88164,8.3535343 C 89.868469,7.6644023 70.504963,37.869346 91.075493,78.807297 102.0374,71.256138 115.04737,68.872282 126.15982,73.773436 137.5586,43.226441 150.99124,44.622405 164.13649,37.317966 169.34605,34.423164 174.13778,31.209224 166.00626,24.661061 151.56255,13.0298 134.40854,8.6231953 121.88164,8.3535343 Z" /></g></g></svg>
